<svg width="56" height="28" viewBox="0 0 56 28" fill="none" xmlns="http://www.w3.org/2000/svg">
<path d="M55.8543 26.7199C55.8751 27.0294 55.8127 27.3005 55.6045 27.5453C55.3842 27.8042 55.1587 28.0263 54.7858 27.9983C54.6904 27.9913 54.595 27.9983 54.4996 27.9983C54.0763 27.9983 53.6548 27.9825 53.2541 27.8147C53.1605 27.7744 53.0529 27.7709 52.9506 27.7534C52.6991 27.7132 52.4458 27.6957 52.2064 27.5873C52.0607 27.5226 51.8977 27.5104 51.7363 27.5104C51.242 27.5104 50.7476 27.5069 50.2533 27.5104C50.0798 27.5104 49.9237 27.4771 49.7762 27.3827C49.5924 27.2655 49.3773 27.2236 49.1795 27.1396C49.0772 27.0959 48.9592 27.1116 48.85 27.1431C48.4198 27.2638 48.0139 27.4474 47.5976 27.6048C47.3062 27.715 47.0113 27.8112 46.7164 27.9091C46.3278 28.0385 45.863 27.8671 45.6947 27.5366C45.5698 27.2918 45.3877 27.0644 45.3877 26.7636C45.3877 26.6937 45.3565 26.622 45.3304 26.5555C45.2715 26.4139 45.235 26.267 45.2177 26.1131C45.1726 25.7056 45.1171 25.2999 45.0546 24.8959C45.0217 24.6861 44.9939 24.4657 45.0148 24.2489C45.0356 24.025 44.987 23.9568 44.7598 23.9463C44.4892 23.9341 44.2168 23.9376 43.9462 23.9358C43.6201 23.9358 43.294 23.9358 42.9679 23.8904C42.7494 23.8589 42.5568 23.7662 42.3695 23.6613C42.2481 23.5931 42.1717 23.4794 42.1648 23.3272C42.1613 23.2555 42.1457 23.1838 42.137 23.1121C42.1232 23.0037 42.0763 22.9408 41.9584 22.925C41.7103 22.89 41.5525 22.7309 41.4224 22.5263C41.2784 22.299 41.216 22.0419 41.1223 21.7953C41.0252 21.5417 40.9697 21.2881 40.9766 21.0206C40.9905 20.5764 40.9055 20.1409 40.869 19.7002C40.85 19.4746 40.7407 19.4169 40.5447 19.5236C40.1318 19.7457 39.6982 19.9276 39.3183 20.2126C39.2298 20.2791 39.1448 20.3578 39.046 20.405C38.7095 20.5711 38.3972 20.7775 38.0833 20.9769C37.693 21.2252 37.2663 21.3738 36.8517 21.5592C36.6435 21.6519 36.4198 21.7411 36.1978 21.7848C35.7606 21.8722 35.3166 21.923 34.8725 21.9597C34.5655 21.9859 34.2706 21.8792 33.9705 21.8705C33.4796 21.8548 33.039 21.6554 32.588 21.5085C32.3209 21.4211 32.0538 21.3144 31.804 21.164C31.4415 20.9471 31.0789 20.732 30.7337 20.4907C30.4857 20.3176 30.2463 20.1304 29.9965 19.9573C29.7814 19.8087 29.7658 19.8157 29.6097 20.0133C29.386 20.2948 29.1535 20.5606 28.8448 20.7653C28.4042 21.0573 27.9428 21.199 27.4206 21.122C27.2697 21.0993 27.1188 21.101 26.9679 21.0905C26.7667 21.0783 26.6505 21.1605 26.5551 21.3424C26.4232 21.5959 26.3209 21.8652 26.1128 22.0804C25.8231 22.3776 25.523 22.6155 25.0737 22.5473C24.9402 22.528 24.8049 22.5403 24.6765 22.4791C24.3764 22.3322 24.0902 22.1608 23.7884 22.0156C23.379 21.818 23.0217 21.5295 22.6557 21.2637C22.5568 21.192 22.4597 21.1255 22.3417 21.0975C22.0572 21.0258 21.7866 20.8929 21.4831 20.8912C21.4363 20.8912 21.386 20.8772 21.3443 20.8562C20.9679 20.6656 20.5742 20.5082 20.2793 20.1847C20.2099 20.1077 20.1301 20.0378 20.0434 19.9818C19.8612 19.8646 19.7017 19.7195 19.5351 19.5831C19.268 19.3645 19.0581 19.0882 18.7875 18.8731C18.569 18.6982 18.3226 18.5967 18.033 18.6492C17.4657 18.7506 16.8933 18.7786 16.3192 18.7734C16.2238 18.7734 16.1284 18.7629 16.033 18.7506C15.6409 18.6982 15.2801 18.5425 14.9263 18.3816C14.5499 18.2085 14.2758 17.913 14.0312 17.5754C13.8734 17.3586 13.8335 17.105 13.7294 16.8707C13.667 16.729 13.634 16.5804 13.6444 16.4247C13.6774 15.9088 13.8005 15.4192 13.9965 14.9383C14.196 14.4468 14.4978 14.0254 14.8239 13.6232C15.0321 13.3678 15.1102 13.095 15.1258 12.7837C15.1275 12.7348 15.1258 12.6876 15.1258 12.6386C15.1188 11.9408 15.3027 11.3078 15.7502 10.7656C15.9497 10.5243 16.1058 10.2497 16.3001 10.0084C16.647 9.5782 16.9315 9.10077 17.301 8.68806C17.405 8.57264 17.3634 8.47995 17.209 8.45722C17.0512 8.43448 16.8933 8.41 16.7337 8.4065C16.3088 8.40125 15.8994 8.3348 15.4831 8.24037C15.0182 8.13544 14.5464 8.07073 14.0867 7.93258C13.9358 7.88711 13.778 7.86088 13.6305 7.79792C13.2541 7.63878 12.8604 7.60031 12.4562 7.63878C11.9254 7.69124 11.3912 7.71223 10.8586 7.72272C10.1492 7.73671 9.43973 7.72272 8.73027 7.68775C8.32264 7.66676 7.91674 7.6825 7.5334 7.50762C7.4987 7.49188 7.45534 7.49188 7.41718 7.48488C6.97659 7.39919 6.54467 7.44816 6.11969 7.57757C6.04337 7.60031 5.96531 7.61779 5.88726 7.62829C5.43452 7.68425 4.98006 7.69649 4.52733 7.67376C4.19602 7.65627 3.85777 7.65627 3.5386 7.52686C3.46575 7.49713 3.38422 7.48314 3.30616 7.47439C3.02863 7.44117 2.76497 7.36946 2.49957 7.26978C2.13357 7.13163 1.77798 6.98997 1.4432 6.77837C1.02689 6.51605 0.648748 6.224 0.367741 5.80954C0.275807 5.67313 0.222035 5.52273 0.159589 5.37758C-0.0433599 4.89666 -0.0711137 4.41924 0.222035 3.95581C0.463145 3.57457 0.817004 3.37521 1.25239 3.34373C1.81614 3.30351 2.38162 3.30176 2.9419 3.20208C3.09801 3.1741 3.25933 3.18809 3.41718 3.21957C3.59931 3.25454 3.78318 3.26504 3.96358 3.21432C4.17867 3.15486 4.3955 3.0954 4.60018 3.00621C4.96792 2.84533 5.35473 2.8121 5.74675 2.8086C6.17694 2.8051 6.60885 2.8086 7.03903 2.8086C7.15872 2.8086 7.27841 2.81035 7.39636 2.77887C7.68778 2.69843 7.97399 2.59175 8.28275 2.597C8.32785 2.597 8.37815 2.57951 8.42151 2.56027C8.69385 2.43436 8.98006 2.36965 9.27668 2.35391C9.59584 2.33643 9.90287 2.22625 10.2238 2.22975C10.5187 2.23325 10.7927 2.16329 11.0356 1.99016C11.131 1.92371 11.235 1.89048 11.3495 1.89048C11.6357 1.89223 11.9237 1.8695 12.2082 1.92371C12.3192 1.94469 12.4302 1.9307 12.5412 1.91846C12.9367 1.87474 13.327 1.78905 13.7294 1.83977C13.9115 1.8625 14.0937 1.88349 14.2775 1.88524C14.7962 1.89223 15.3148 1.88524 15.8335 1.89398C16.2047 1.90097 16.5638 1.85201 16.9211 1.75582C17.098 1.70861 17.2801 1.66838 17.4623 1.65964C17.7121 1.64915 17.9514 1.59144 18.1908 1.52848C18.3383 1.49001 18.4857 1.46552 18.6366 1.44629C18.8569 1.42006 19.0841 1.40781 19.2958 1.33262C19.5074 1.25742 19.7242 1.20845 19.9462 1.18397C20.2082 1.15599 20.4666 1.10527 20.7181 1.02483C20.8326 0.988102 20.9523 0.981107 21.072 0.968865C21.4363 0.933889 21.804 0.91815 22.1561 0.795734C22.2845 0.752015 22.4198 0.734526 22.5551 0.727531C22.7147 0.720536 22.8742 0.697802 23.0217 0.634845C23.464 0.445975 23.9532 0.426738 24.4007 0.258854C24.4076 0.255356 24.4163 0.255356 24.425 0.255356C24.7459 0.23437 25.0581 0.167916 25.3634 0.0787274C26.0104 -0.110143 26.6106 0.0699834 27.1986 0.311317C27.5438 0.45297 27.8647 0.652333 28.2307 0.743271C28.2689 0.752014 28.307 0.769502 28.3417 0.78699C28.7962 1.01783 29.2923 1.15074 29.752 1.36934C29.8716 1.42705 30.0226 1.42006 30.1405 1.48126C30.4926 1.66139 30.8829 1.71735 31.2489 1.85551C31.6566 2.00765 32.0763 2.13706 32.4805 2.30495C32.5325 2.32593 32.5863 2.34692 32.6401 2.35391C32.954 2.39763 33.2264 2.55677 33.5126 2.67219C33.8803 2.81909 34.2324 3.00796 34.6175 3.11289C34.6713 3.12688 34.7216 3.15311 34.7719 3.17935C34.9957 3.30351 35.2385 3.3857 35.4692 3.49238C35.6566 3.57807 35.8352 3.69699 36.033 3.74945C36.3226 3.82465 36.5742 3.98204 36.8413 4.10096C37.1015 4.21813 37.3894 4.2706 37.6288 4.43673C37.66 4.45772 37.7034 4.46471 37.7416 4.47346C38.0694 4.54341 38.3695 4.7008 38.6921 4.79174C38.8795 4.8442 39.0546 4.95437 39.2541 4.9841C39.2923 4.98935 39.3357 5.00509 39.3634 5.02957C39.5369 5.17997 39.7572 5.19746 39.967 5.23943C40.1474 5.2744 40.1891 5.23593 40.2099 5.04531C40.229 4.87043 40.2411 4.6938 40.2654 4.51892C40.3105 4.21288 40.51 4.02052 40.7632 3.88061C40.9801 3.75995 41.1743 3.82815 41.3634 3.96456C41.5056 4.06599 41.5265 4.052 41.6392 3.92258C41.8543 3.676 42.1093 3.52561 42.4493 3.53085C42.9436 3.5396 43.438 3.53085 43.9324 3.53085C44.2429 3.53085 44.3747 3.45216 44.4666 3.15836C44.5239 2.97648 44.6297 2.85582 44.7771 2.74914C44.9263 2.63897 45.0963 2.60749 45.268 2.57601C45.386 2.55502 45.5022 2.52704 45.6132 2.47983C45.7988 2.39938 45.9931 2.36441 46.196 2.3679C46.3226 2.36965 46.451 2.34692 46.5776 2.35042C46.7997 2.35741 47.0321 2.33293 47.2368 2.43436C47.5213 2.57601 47.8057 2.72291 48.0659 2.90304C48.3782 3.11989 48.7164 3.10065 49.0269 2.99572C49.3096 2.89954 49.5906 2.83833 49.8821 2.79636C50.2394 2.74389 50.5915 2.79286 50.9107 2.93451C51.3964 3.14787 51.8821 3.10764 52.3625 2.99747C52.6488 2.93276 52.9315 2.85232 53.2246 2.8121C53.3027 2.8016 53.3825 2.78587 53.4588 2.76488C53.8456 2.65995 54.2394 2.61448 54.6401 2.60924C54.9679 2.60399 55.2229 2.7404 55.4536 2.95375C55.5768 3.06917 55.634 3.20907 55.6687 3.37171C55.7155 3.59031 55.6687 3.80367 55.6687 4.02052C55.667 4.59062 55.693 5.16423 55.6496 5.73259C55.5872 6.55452 55.6184 7.37471 55.6843 8.1879C55.7329 8.78074 55.7606 9.37359 55.7988 9.96643C55.8335 10.4858 55.8769 11.0087 55.8612 11.5316C55.8578 11.619 55.8769 11.7065 55.8838 11.7957C55.9063 12.1332 56.0035 12.4602 56.0035 12.7995C56.0017 14.1181 56.0017 15.4367 56 16.7553C56 16.8602 55.9896 16.9634 55.9809 17.0683C55.9428 17.516 55.8768 17.9637 55.8682 18.4114C55.8491 19.4082 55.8179 20.4033 55.7745 21.3983C55.7346 22.3024 55.7745 23.2101 55.8005 24.1159C55.8196 24.7735 55.8907 25.431 55.856 26.0082C55.856 26.3002 55.8456 26.5101 55.8578 26.7182L55.8543 26.7199ZM15.4397 14.4888C15.6167 14.4014 15.804 14.3769 15.9983 14.3856C16.1596 14.3926 16.3174 14.3594 16.4718 14.3262C16.9818 14.2143 17.4727 14.3419 17.9601 14.4503C18.1232 14.4871 18.2793 14.5955 18.4163 14.7022C18.5499 14.8054 18.6938 14.891 18.8309 14.9872C19.0043 15.1096 19.1032 15.0782 19.2246 14.898C19.4154 14.6165 19.6635 14.4259 20 14.3332C20.3573 14.2352 20.7164 14.1863 21.0859 14.188C21.4762 14.1898 21.8647 14.1286 22.2567 14.1461C22.5065 14.1565 22.7442 14.1915 22.9714 14.3104C23.268 14.4643 23.5594 14.4731 23.8474 14.2597C24.0798 14.0883 24.3469 14.1198 24.6036 14.2073C24.7008 14.2405 24.791 14.2965 24.8864 14.3367C25.0616 14.4119 25.2194 14.4084 25.3686 14.2615C25.5872 14.0464 25.8595 14.0166 26.1474 14.0674C26.6106 14.1513 27.0789 14.2003 27.5507 14.1898C27.83 14.1828 28.1128 14.174 28.3834 14.1303C28.7164 14.0761 29.0512 13.9834 29.3391 13.7841C29.3582 13.7701 29.3773 13.7491 29.3981 13.7438C29.8127 13.6284 30.1405 13.3486 30.5152 13.1527C30.7528 13.0286 30.9922 12.9621 31.2455 12.9639C31.5282 12.9656 31.8196 12.9534 32.0815 13.1143C32.2186 13.1982 32.3816 13.2139 32.5429 13.2297C32.9159 13.2664 33.2854 13.3154 33.6548 13.3818C34.0798 13.4588 34.5134 13.4465 34.9402 13.3923C35.327 13.3434 35.7086 13.2524 36.0971 13.2157C36.255 13.2017 36.4111 13.165 36.5568 13.0898C36.6713 13.0303 36.7979 12.9988 36.9263 12.9953C37.1518 12.9884 37.3669 12.9341 37.582 12.8659C37.7346 12.817 37.8907 12.7925 38.052 12.7942C38.4978 12.7977 38.9419 12.7278 39.3894 12.7453C39.4779 12.7488 39.5698 12.7383 39.6461 12.6963C39.8751 12.5669 40.1422 12.5179 40.3504 12.3465C40.4562 12.2609 40.5967 12.2399 40.7095 12.1594C41.1622 11.8376 41.3218 11.3742 41.3426 10.8478C41.3565 10.4788 41.3651 10.1098 41.386 9.74083C41.405 9.41905 41.8456 9.09028 42.2116 9.25642C42.4059 9.34561 42.484 9.55546 42.4892 9.76007C42.4978 10.0906 42.5256 10.4176 42.5429 10.7464C42.5499 10.8828 42.5551 11.0192 42.588 11.1521C42.6609 11.4424 42.6678 11.745 42.6748 12.037C42.6869 12.5826 42.7372 13.1283 42.7372 13.6739C42.732 15.5958 42.7372 17.5177 42.7337 19.4397C42.7337 19.8506 42.6765 20.2564 42.6262 20.6621C42.569 21.1395 42.5187 21.6187 42.4978 22.1013C42.4926 22.215 42.4788 22.3234 42.4354 22.4301C42.3608 22.6102 42.3799 22.6347 42.5794 22.6365C43.0338 22.64 43.49 22.6137 43.9428 22.6505C44.5412 22.6977 45.1379 22.6732 45.7363 22.6837C45.8075 22.6837 45.8803 22.6837 45.9514 22.6749C46.0451 22.6662 46.1214 22.6207 46.1544 22.528C46.1995 22.4004 46.2481 22.2692 46.2689 22.1363C46.3001 21.9474 46.3192 21.7533 46.3209 21.561C46.3331 20.8387 46.3608 20.1147 46.3816 19.3924C46.4094 18.4114 46.4527 17.4303 46.4111 16.4527C46.3573 15.1831 46.4042 13.9135 46.366 12.6438C46.3435 11.9373 46.3018 11.2326 46.1613 10.5365C46.1474 10.4666 46.137 10.3931 46.1388 10.3214C46.1561 9.80554 46.0763 9.29489 46.0833 8.78074C46.085 8.65133 46.059 8.52542 46.0312 8.39951C45.9376 7.9658 45.8977 7.52686 45.8907 7.08441C45.8855 6.75564 45.8422 6.42861 45.752 6.10858C45.6791 5.85326 45.6739 5.58569 45.6566 5.32162C45.6496 5.23418 45.6566 5.14499 45.6479 5.05581C45.6219 4.80398 45.4536 4.65358 45.2073 4.63959C44.6106 4.60462 44.0139 4.63959 43.4172 4.64659C43.3374 4.64659 43.2559 4.65533 43.1813 4.67632C42.8482 4.77075 42.5187 4.75326 42.1891 4.66932C42.1579 4.66233 42.1266 4.65183 42.0954 4.64659C42.0191 4.63609 41.9358 4.57838 41.8682 4.64659C41.7953 4.72004 41.83 4.81622 41.8647 4.89492C42.0121 5.23243 42.0347 5.59443 42.0642 5.95469C42.0729 6.06661 42.0902 6.17853 42.1162 6.28696C42.1561 6.45834 42.1925 6.63147 42.2324 6.8046C42.3053 7.12114 42.2047 7.36772 41.9618 7.57407C41.8057 7.70698 41.6392 7.69824 41.4657 7.65277C41.2958 7.6073 41.2229 7.46565 41.216 7.30476C41.209 7.09315 41.1327 6.92352 41.0165 6.75039C40.9246 6.61573 40.8222 6.5248 40.6748 6.46883C40.451 6.38664 40.2359 6.27297 39.9896 6.26597C39.9584 6.26597 39.9237 6.25898 39.8977 6.24499C39.6357 6.10159 39.3478 6.03863 39.0685 5.94419C38.654 5.80429 38.2394 5.66439 37.8248 5.52623C37.5108 5.4213 37.1951 5.31113 36.8881 5.17472C36.595 5.04531 36.3209 4.83895 35.9809 4.82322C35.9584 4.82322 35.9289 4.81797 35.9115 4.80573C35.6843 4.6326 35.4016 4.58713 35.1483 4.47346C34.8951 4.35978 34.6418 4.23912 34.3938 4.1167C34.1006 3.97155 33.7901 3.87012 33.4935 3.74071C33.2281 3.62529 32.9558 3.50987 32.6782 3.41368C32.3955 3.31575 32.1058 3.22132 31.837 3.08666C31.8092 3.07267 31.7832 3.04644 31.7537 3.04119C31.405 2.97998 31.1084 2.76488 30.7598 2.70192C30.6817 2.68793 30.6089 2.65296 30.5343 2.62498C30.4822 2.60399 30.4354 2.56552 30.3816 2.55677C30.0503 2.50431 29.7381 2.38189 29.4189 2.28396C29.0304 2.16504 28.6557 2.0129 28.2723 1.87824C28.1821 1.84676 28.0971 1.80304 28.0017 1.7873C27.8751 1.76632 27.7554 1.72435 27.6461 1.65439C27.5646 1.60193 27.4727 1.5757 27.379 1.54947C27.3027 1.52848 27.2212 1.51449 27.1518 1.47777C26.7372 1.25567 26.2862 1.18397 25.8317 1.21894C25.3582 1.25567 24.8777 1.2854 24.425 1.46378C24.3365 1.49875 24.2411 1.53373 24.1474 1.53373C23.8699 1.53722 23.6149 1.62816 23.3582 1.71385C23.1986 1.76632 23.0338 1.79605 22.8638 1.78905C22.6938 1.78381 22.5273 1.80129 22.3695 1.86075C22.059 1.97617 21.7346 2.00765 21.4085 2.03563C21.3287 2.04263 21.2489 2.05137 21.1726 2.07411C20.6713 2.2245 20.1527 2.24549 19.6357 2.27871C19.5334 2.28571 19.4259 2.2997 19.3322 2.33817C19.1223 2.42561 18.9055 2.47108 18.6834 2.49382C18.5152 2.5113 18.3573 2.57076 18.1978 2.61973C17.9046 2.70892 17.5976 2.69668 17.2992 2.75264C17.2281 2.76663 17.1553 2.77013 17.0876 2.79286C16.6331 2.94501 16.1665 2.96249 15.693 2.9555C15.1587 2.94676 14.6245 2.9555 14.0902 2.94676C13.837 2.94326 13.6167 2.99572 13.4519 3.20733C13.4137 3.25629 13.3582 3.29651 13.3044 3.32799C13.1466 3.41543 12.987 3.35422 12.9159 3.18459C12.9037 3.15486 12.8985 3.12164 12.8847 3.09365C12.8222 2.959 12.7129 2.8803 12.5707 2.86281C12.4267 2.84707 12.3625 2.9555 12.3053 3.06742C12.288 3.1024 12.2723 3.14087 12.2498 3.1741C12.118 3.36996 11.8508 3.35422 11.7468 3.14087C11.7017 3.04819 11.6774 2.94501 11.6028 2.86631C11.5265 2.78412 11.4363 2.74215 11.3235 2.76838C11.2142 2.79286 11.1709 2.8803 11.1535 2.97998C11.1206 3.17235 11.0703 3.35422 10.9367 3.50637C10.8014 3.66201 10.673 3.66551 10.5395 3.50637C10.5134 3.47489 10.4926 3.44166 10.4683 3.41019C10.2845 3.1671 10.0625 3.03769 9.74328 3.12688C9.55942 3.1776 9.36341 3.15486 9.1726 3.1741C8.74068 3.21607 8.33999 3.3927 7.91154 3.44341C7.804 3.45566 7.7242 3.52736 7.64961 3.60255C7.55942 3.69349 7.46748 3.78268 7.35994 3.85263C7.26106 3.91559 7.16393 3.92258 7.07546 3.83864C6.82394 3.6043 6.50478 3.56933 6.18908 3.53435C5.93409 3.50637 5.68084 3.55009 5.42932 3.59556C5.2177 3.63403 5.00608 3.67775 4.78925 3.67775C4.46315 3.67775 4.2654 3.86837 4.1752 4.15517C4.09541 4.4105 3.93756 4.54691 3.70686 4.66058C3.35647 4.83196 2.99046 4.86519 2.61406 4.87743C2.3504 4.88617 2.08847 4.88267 1.82481 4.88093C1.64094 4.88093 1.45707 4.88792 1.28014 4.82671C1.22811 4.80922 1.16566 4.78824 1.13444 4.85819C1.11015 4.9124 1.15178 4.95088 1.19341 4.97536C1.49697 5.16073 1.77971 5.38983 2.14745 5.44229C2.26713 5.45978 2.37815 5.49126 2.48569 5.54897C2.70252 5.66788 2.94537 5.68712 3.18301 5.69237C3.86124 5.70986 4.53773 5.70461 5.21423 5.6434C5.23851 5.64165 5.2628 5.6434 5.28535 5.63466C5.72247 5.47901 6.19428 5.45103 6.62273 5.27441C6.92455 5.15024 7.20903 5.14674 7.49697 5.30239C7.51779 5.31463 7.5386 5.32687 7.56288 5.33212C7.9948 5.44579 8.42672 5.55771 8.86731 5.62242C9.05985 5.6504 9.26974 5.62941 9.46054 5.58394C9.90981 5.47727 10.3747 5.44579 10.8083 5.26566C10.9905 5.18871 11.183 5.15024 11.3495 5.02608C11.4779 4.92989 11.6427 4.94913 11.778 5.04531C11.9341 5.15549 12.1041 5.2062 12.2914 5.22194C12.3851 5.22894 12.484 5.24992 12.569 5.29014C12.7858 5.38983 13.013 5.41256 13.2455 5.40731C13.4449 5.40382 13.6427 5.43005 13.8422 5.44054C14.4337 5.46852 15.02 5.44579 15.5924 5.25692C15.8335 5.17822 16.0833 5.1415 16.314 5.01383C16.4805 4.92115 16.6886 4.93514 16.8621 5.05406C16.9905 5.1415 17.1292 5.19571 17.2801 5.22019C17.4311 5.24642 17.5542 5.3496 17.6999 5.39332C18.3573 5.58569 19.0182 5.77456 19.6965 5.85151C20.4076 5.93195 21.1223 5.96168 21.8439 5.91272C22.307 5.88124 22.732 5.73259 23.1709 5.62416C23.3842 5.5717 23.5681 5.42655 23.7849 5.36359C24.1561 5.25517 24.3625 5.39332 24.4042 5.7903C24.4267 6.0054 24.4649 6.2205 24.4926 6.43386C24.5152 6.59824 24.6002 6.71891 24.7372 6.80111C24.8396 6.86231 24.9506 6.91128 25.0581 6.96374C25.1102 6.98823 25.1691 7.00746 25.2212 6.98823C25.4484 6.89904 25.7034 6.87455 25.8873 6.68568C26.0503 6.51955 26.2116 6.35341 26.3764 6.19077C26.4978 6.07186 26.6175 5.95294 26.8153 6.02639C27.0234 6.10333 27.1049 6.25723 27.1292 6.46708C27.1743 6.84133 27.2177 7.21732 27.2836 7.58806C27.3391 7.9011 27.4779 8.17391 27.7415 8.37502C27.8786 8.47995 28.033 8.52192 28.1873 8.52017C28.4406 8.51668 28.6904 8.4782 28.9246 8.35229C29.1691 8.22113 29.4328 8.11445 29.6687 7.98154C29.9809 7.80491 30.3383 7.79093 30.6487 7.61779C30.8135 7.52686 31.0356 7.52686 31.235 7.54784C31.412 7.56533 31.6184 7.75945 31.66 7.92733C31.6808 8.01302 31.6548 8.08472 31.6028 8.15118C31.4987 8.28409 31.3651 8.36453 31.1986 8.38202C31.0217 8.39951 30.8517 8.43623 30.7095 8.55515C30.68 8.57963 30.6383 8.59712 30.6002 8.60237C30.3521 8.64259 30.1752 8.81572 29.9723 8.93639C29.4831 9.22669 29.0685 9.61667 28.6314 9.97517C28.4649 10.1116 28.2897 10.2427 28.1422 10.3966C27.8578 10.6939 27.523 10.9265 27.2056 11.1801C26.8794 11.4407 26.5239 11.6523 26.1683 11.8586C25.9393 11.9915 25.6843 12.093 25.4328 12.1926C25.013 12.3588 24.5915 12.4112 24.1492 12.4182C23.9202 12.4217 23.6912 12.4637 23.4623 12.4864C23.2212 12.5092 22.9766 12.5756 22.7823 12.7488C22.6453 12.8694 22.4805 12.9306 22.3244 12.8135C22.0486 12.6089 21.7225 12.5651 21.4085 12.4969C20.9367 12.392 20.4597 12.3955 19.9879 12.5144C19.6444 12.6019 19.2888 12.5739 18.9436 12.6351C18.8881 12.6456 18.8274 12.6421 18.7806 12.6666C18.4961 12.8205 18.1752 12.8642 17.8803 12.9849C17.7242 13.0496 17.5681 13.1073 17.3998 13.1248C17.3096 13.1335 17.2333 13.172 17.1553 13.2174C17.0876 13.2577 17.0165 13.2996 16.9402 13.3206C16.6505 13.3976 16.4146 13.5759 16.1613 13.7228C15.9046 13.8715 15.6756 14.0551 15.4449 14.2387C15.3634 14.3034 15.2906 14.3734 15.2697 14.4801C15.3322 14.5343 15.386 14.5028 15.4345 14.4801L15.4397 14.4888ZM18.2689 15.6168C18.2047 15.4734 18.0971 15.3597 17.9705 15.2793C17.5976 15.0414 17.1917 14.9173 16.7442 14.982C16.6505 14.996 16.5533 15.0117 16.4597 15.01C16.2238 15.0047 16.0017 15.0484 15.7901 15.1551C15.6982 15.2006 15.5924 15.2128 15.4935 15.2478C15.2524 15.3317 15.0234 15.4402 14.85 15.6395C14.5724 15.9613 14.5204 16.3408 14.5724 16.7448C14.6748 17.523 15.3426 17.8762 16.0156 17.9462C16.3556 17.9812 16.7043 17.9847 17.0425 17.9462C17.5213 17.8902 17.9514 17.7049 18.229 17.2712C18.2984 17.1627 18.3487 17.0508 18.3625 16.9022C18.2498 16.9284 18.2134 17.0001 18.1752 17.0665C17.9983 17.3743 17.7415 17.551 17.3946 17.6472C16.85 17.801 16.3105 17.7975 15.7624 17.7206C15.4657 17.6786 15.235 17.502 15.0113 17.3201C14.9141 17.2414 14.9124 17.1208 14.961 17.0088C15.0095 16.8969 15.1067 16.8987 15.2056 16.9179C15.4952 16.9756 15.7762 16.9162 16.0555 16.8479C16.203 16.813 16.3521 16.7867 16.4996 16.7553C17.0217 16.6433 17.3096 16.0872 17.0234 15.5766C17.0113 15.5556 16.9957 15.5364 16.9835 15.5171C16.8361 15.2845 16.9089 15.1289 17.1795 15.1166C17.3738 15.1061 17.5542 15.1429 17.7155 15.2758C17.9011 15.4297 18.0902 15.5748 18.1995 15.7987C18.2099 15.8197 18.2272 15.8371 18.2463 15.8529C18.2567 15.8616 18.2758 15.8581 18.3001 15.8634C18.3469 15.7742 18.3036 15.6955 18.2689 15.6168ZM23.5143 18.4411C23.8075 18.3379 24.1023 18.3274 24.4094 18.3712C24.7494 18.4184 25.0859 18.4026 25.4241 18.289C25.889 18.1316 26.3643 18.1403 26.8309 18.3082C27.1015 18.4044 27.3773 18.4813 27.6479 18.5758C27.9566 18.6842 28.2411 18.8521 28.5568 18.9395C28.588 18.9483 28.6141 18.9675 28.6453 18.978C28.7025 18.9972 28.758 18.9972 28.7875 18.9325C28.8101 18.8818 28.7893 18.8311 28.7459 18.8066C28.588 18.7157 28.4441 18.602 28.2637 18.546C27.9601 18.4516 27.6548 18.3554 27.3599 18.2365C26.8083 18.0144 26.2446 17.92 25.6548 18.0284C25.4363 18.0686 25.2125 18.0826 25.0043 18.1735C24.9003 18.219 24.784 18.1998 24.673 18.1805C24.5239 18.1543 24.3747 18.1246 24.2238 18.1088C23.9913 18.0861 23.7676 18.1001 23.5507 18.2173C23.32 18.3432 23.0529 18.3362 22.8031 18.3187C21.9219 18.2522 21.0408 18.1753 20.1544 18.2015C20.0503 18.205 19.9462 18.2068 19.8491 18.247C19.804 18.2662 19.7537 18.2872 19.7676 18.3467C19.7797 18.4009 19.83 18.4149 19.8786 18.4219C19.9098 18.4254 19.9428 18.4219 19.974 18.4219C20.5464 18.3816 21.1188 18.3974 21.693 18.4219C22.1076 18.4394 22.5152 18.5198 22.928 18.539C23.131 18.5425 23.3252 18.5093 23.5161 18.4429L23.5143 18.4411ZM21.2975 7.77519C21.4571 8.048 21.5976 8.32955 21.7242 8.6216C21.8578 8.92939 21.9098 9.27041 22.0989 9.55371C22.1162 9.57994 22.1284 9.61142 22.1353 9.6429C22.2359 10.1361 22.5447 10.5173 22.8014 10.9265C22.8899 11.0682 23.0321 11.1451 23.1501 11.25C23.1778 11.2745 23.2212 11.2868 23.2593 11.2938C23.3148 11.3043 23.3755 11.3043 23.4085 11.2483C23.4449 11.1888 23.4085 11.1399 23.3686 11.0997C23.3357 11.0664 23.294 11.0402 23.2576 11.0105C23.0043 10.8093 22.8222 10.5558 22.6626 10.2725C22.5117 10.0049 22.4111 9.71635 22.3105 9.43479C22.2047 9.14449 22.0625 8.86644 21.9827 8.56214C21.9133 8.29633 21.7884 8.041 21.6392 7.80317C21.5802 7.70873 21.5299 7.6073 21.4657 7.51636C21.4206 7.45166 21.3513 7.43067 21.2749 7.46215C21.2229 7.48314 21.2142 7.53035 21.2108 7.56183C21.216 7.65627 21.2628 7.71398 21.2975 7.77519ZM20.9263 9.21794C20.9679 9.21794 21.0113 9.20046 21.0182 9.15674C21.0286 9.09903 20.9835 9.0693 20.9367 9.05531C20.7927 9.01159 20.647 8.96786 20.5013 8.93464C20.3938 8.91016 20.2827 8.89616 20.1717 8.88392C20.0295 8.86818 19.889 8.84195 19.7554 8.78599C19.5872 8.71429 19.4189 8.64609 19.2333 8.62685C19.1639 8.61985 19.0928 8.58838 19.0338 8.55165C18.9176 8.4782 18.7893 8.43798 18.6661 8.38202C18.5967 8.35054 18.5134 8.28758 18.4579 8.38901C18.4094 8.4782 18.4874 8.53766 18.5429 8.59187C18.7008 8.74752 18.9124 8.82796 19.1084 8.88567C19.5941 9.02907 20.0798 9.18996 20.5932 9.21794C20.6331 9.21969 20.673 9.21794 20.7129 9.21794C20.784 9.21794 20.8552 9.21969 20.928 9.21794H20.9263ZM32.5447 19.34C32.8621 19.2735 33.1691 19.1511 33.4623 19.0077C33.8213 18.8311 34.1405 18.5915 34.4527 18.3432C34.5169 18.2925 34.6314 18.24 34.5464 18.1403C34.477 18.0581 34.3834 18.1211 34.3157 18.1805C34 18.4533 33.6583 18.6859 33.2801 18.8626C32.8586 19.0619 32.4146 19.1791 31.9497 19.2141C31.7988 19.2263 31.6496 19.2438 31.4987 19.2595C31.4432 19.2665 31.379 19.2735 31.3825 19.3505C31.386 19.4204 31.4467 19.4344 31.5022 19.4432C31.5334 19.4484 31.5664 19.4467 31.5664 19.4467C31.915 19.4117 32.2359 19.4029 32.5447 19.3382V19.34ZM25.9219 8.50094C25.6791 9.134 25.2628 9.64465 24.791 10.1133C24.7112 10.192 24.6297 10.269 24.5291 10.3197C24.4788 10.3459 24.4337 10.3774 24.4024 10.4281C24.3747 10.4718 24.3695 10.519 24.4024 10.5628C24.4285 10.5977 24.4683 10.6065 24.51 10.5995C24.5932 10.5873 24.6557 10.5383 24.7129 10.4806C24.9332 10.2497 25.1813 10.0469 25.3894 9.80379C25.464 9.7181 25.5143 9.61842 25.5785 9.52748C25.7728 9.25467 25.9636 8.97836 26.1284 8.68631C26.1631 8.62335 26.2099 8.56739 26.2116 8.49044C26.2116 8.4135 26.1752 8.37153 26.0989 8.36453C26.0069 8.36453 25.9514 8.42049 25.9202 8.50094H25.9219ZM2.84476 4.20414C2.96271 4.17966 3.0772 4.14818 3.18648 4.10096C3.23158 4.08173 3.27494 4.05374 3.268 3.99603C3.26106 3.93657 3.21076 3.92258 3.16219 3.92084C3.07546 3.92084 2.987 3.91909 2.90027 3.92958C2.45794 3.98029 2.01735 4.05549 1.57156 4.06074C1.56288 4.06074 1.55595 4.06074 1.54727 4.06074C1.47962 4.07123 1.38249 4.06074 1.38769 4.16042C1.39289 4.25486 1.49003 4.24611 1.55768 4.24786C1.7242 4.25311 1.89246 4.24786 2.05898 4.24786C2.32264 4.25311 2.58457 4.25311 2.84476 4.20064V4.20414ZM25.0425 15.6343C25.0269 15.5608 24.9731 15.4961 24.8864 15.5224C24.7962 15.5486 24.7927 15.6325 24.8274 15.7007C24.987 16.019 24.928 16.36 24.9332 16.6958C24.935 16.8025 24.9037 16.9004 24.869 17.0001C24.8465 17.063 24.8396 17.133 24.9176 17.1627C24.9887 17.189 25.039 17.1435 25.0737 17.084C25.098 17.0421 25.1154 16.9966 25.1292 16.9511C25.183 16.7745 25.2021 16.5909 25.2212 16.395C25.1934 16.1397 25.0945 15.8914 25.0425 15.6325V15.6343ZM22.8031 17.0211C22.8344 17.1085 22.85 17.2397 22.9783 17.1995C23.1067 17.1592 23.0564 17.0456 23.0147 16.9564C22.9696 16.8584 22.9679 16.7535 22.9679 16.6503C22.9679 16.3933 22.9679 16.1362 22.9679 15.8791C22.9679 15.8232 22.9679 15.7672 22.9644 15.7112C22.9558 15.629 22.9402 15.5381 22.8361 15.5416C22.7424 15.5451 22.7372 15.6343 22.7355 15.706C22.732 15.8739 22.7355 16.0435 22.7355 16.2114C22.7355 16.4842 22.7095 16.7588 22.8066 17.0228L22.8031 17.0211Z" fill="black"/>
</svg>
